<svg version="1.0" xmlns="http://www.w3.org/2000/svg"
 width="512.000000pt" height="512.000000pt" viewBox="0 0 512.000000 512.000000"
 preserveAspectRatio="xMidYMid meet">
  <g transform="translate(0.000000,512.000000) scale(0.100000,-0.100000)" fill="#61ebd0" stroke="none">
    <path d="M1613 5105 c-29 -8 -72 -24 -95 -36 -53 -27 -774 -741 -824 -817 -75 -112 -69 59 -69 -2037 l0 -1880 23 -56 c35 -86 80 -148 144 -195 118 -86 -43 -79 1768 -79 1811 0 1650 -7 1768 79 64 47 109 109 144 195 l23 56 3 2175 c1 1320 -1 2202 -7 2243 -25 179 -160 325 -330 357 -35 6 -488 10 -1275 9 -1019 0 -1230 -3 -1273 -14z m2539 -290 c59 -43 58 -31 58 -648 l0 -566 -287 -3 c-283 -3 -289 -3 -321 -26 -90 -64 -80 -195 18 -244 31 -16 68 -18 313 -18 l277 0 0 -125 0 -125 -107 0 c-140 -1 -184 -18 -214 -86 -26 -58 -19 -102 22 -149 39 -44 80 -55 202 -55 l97 0 -2 -1204 -3 -1205 -30 -31 c-16 -16 -46 -35 -66 -40 -24 -7 -576 -9 -1576 -8 -1492 3 -1539 4 -1566 22 -61 41 -57 -92 -57 1886 l0 1810 368 0 c346 0 369 1 399 20 67 40 68 45 71 453 l3 367 1187 -2 c1169 -3 1187 -3 1214 -23z m-2692 -360 l0 -175 -177 0 -178 0 175 175 c96 96 176 175 177 175 2 0 3 -79 3 -175z"/>
    <path d="M2401 4500 c-167 -45 -316 -169 -389 -322 -48 -100 -62 -161 -62 -275 0 -167 56 -300 180 -424 128 -129 274 -186 455 -176 127 6 212 33 308 97 121 81 205 190 248 322 34 105 34 271 0 376 -59 179 -202 326 -381 389 -103 36 -253 42 -359 13z m272 -287 c59 -18 144 -95 175 -157 63 -125 40 -270 -60 -372 -125 -130 -331 -131 -459 -3 -126 126 -126 332 -1 457 93 93 210 118 345 75z"/>
    <path d="M2395 3134 c-273 -26 -537 -90 -689 -167 -119 -59 -213 -190 -235 -327 -6 -36 -11 -201 -11 -368 0 -327 2 -344 55 -392 l27 -25 1006 -3 c984 -2 1008 -2 1039 17 69 43 68 37 68 421 0 306 -2 352 -18 405 -32 102 -90 184 -172 240 -96 67 -359 149 -579 181 -99 14 -412 26 -491 18z m427 -299 c199 -28 435 -97 490 -143 54 -46 58 -68 58 -327 l0 -235 -810 0 -810 0 0 243 0 243 27 42 c29 45 58 60 198 105 97 32 202 56 315 72 121 18 405 18 532 0z"/>
    <path d="M1240 1488 c-105 -55 -105 -193 0 -249 33 -18 88 -19 1315 -19 1227 0 1282 1 1321 19 53 24 89 91 78 147 -9 48 -56 101 -102 114 -24 6 -474 10 -1302 10 l-1266 0 -44 -22z"/>
    <path d="M1232 860 c-40 -25 -72 -75 -72 -115 0 -43 30 -96 69 -122 l34 -23 1296 0 c1267 0 1297 1 1328 20 46 28 67 65 67 120 0 55 -21 92 -67 120 -31 19 -61 20 -1327 20 -1275 0 -1296 0 -1328 -20z"/>
  </g>
</svg>
